<mxfile host="app.diagrams.net" agent="Mozilla/5.0 (Macintosh; Intel Mac OS X 10.15; rv:143.0) Gecko/20100101 Firefox/143.0" version="28.2.7">
  <diagram name="Page-1" id="tT6i4luFaXF-C5tEEcnK">
    <mxGraphModel grid="1" page="1" gridSize="10" guides="1" tooltips="1" connect="1" arrows="1" fold="1" pageScale="1" pageWidth="850" pageHeight="1100" math="0" shadow="0">
      <root>
        <mxCell id="0" />
        <mxCell id="1" parent="0" />
        <mxCell id="fSRjRrEwKEqSPYzv1rZL-82" value="" style="endArrow=none;html=1;rounded=0;entryX=0.25;entryY=1;entryDx=0;entryDy=0;exitX=0.5;exitY=0;exitDx=0;exitDy=0;" edge="1" parent="1" source="fSRjRrEwKEqSPYzv1rZL-73" target="fSRjRrEwKEqSPYzv1rZL-1">
          <mxGeometry width="50" height="50" relative="1" as="geometry">
            <mxPoint x="530" y="310" as="sourcePoint" />
            <mxPoint x="580" y="260" as="targetPoint" />
          </mxGeometry>
        </mxCell>
        <mxCell id="fSRjRrEwKEqSPYzv1rZL-8" value="" style="rounded=0;whiteSpace=wrap;html=1;" vertex="1" parent="1">
          <mxGeometry x="-110" y="340" width="140" height="80" as="geometry" />
        </mxCell>
        <mxCell id="fSRjRrEwKEqSPYzv1rZL-1" value="Person" style="rounded=0;whiteSpace=wrap;html=1;" vertex="1" parent="1">
          <mxGeometry x="360" y="230" width="120" height="60" as="geometry" />
        </mxCell>
        <mxCell id="fSRjRrEwKEqSPYzv1rZL-2" value="Project" style="rounded=0;whiteSpace=wrap;html=1;" vertex="1" parent="1">
          <mxGeometry x="-30" y="-30" width="120" height="60" as="geometry" />
        </mxCell>
        <mxCell id="Z-Az1LUCPEZVecz7lOXt-5" value="" style="rounded=0;orthogonalLoop=1;jettySize=auto;html=1;entryX=0.5;entryY=1;entryDx=0;entryDy=0;" edge="1" parent="1" source="fSRjRrEwKEqSPYzv1rZL-3" target="fSRjRrEwKEqSPYzv1rZL-3">
          <mxGeometry relative="1" as="geometry">
            <mxPoint x="980" y="-80" as="targetPoint" />
          </mxGeometry>
        </mxCell>
        <mxCell id="fSRjRrEwKEqSPYzv1rZL-3" value="Conference" style="rounded=0;whiteSpace=wrap;html=1;" vertex="1" parent="1">
          <mxGeometry x="1075" y="-240" width="120" height="60" as="geometry" />
        </mxCell>
        <mxCell id="fSRjRrEwKEqSPYzv1rZL-4" value="&lt;div&gt;Presentation&lt;/div&gt;" style="rounded=0;whiteSpace=wrap;html=1;" vertex="1" parent="1">
          <mxGeometry x="1170" y="-75" width="120" height="60" as="geometry" />
        </mxCell>
        <mxCell id="fSRjRrEwKEqSPYzv1rZL-5" value="Department" style="rounded=0;whiteSpace=wrap;html=1;" vertex="1" parent="1">
          <mxGeometry x="510" y="430" width="120" height="60" as="geometry" />
        </mxCell>
        <mxCell id="fSRjRrEwKEqSPYzv1rZL-6" value="Institution" style="rounded=0;whiteSpace=wrap;html=1;" vertex="1" parent="1">
          <mxGeometry x="860" y="515" width="120" height="60" as="geometry" />
        </mxCell>
        <mxCell id="fSRjRrEwKEqSPYzv1rZL-7" value="WorkHistory" style="rounded=0;whiteSpace=wrap;html=1;" vertex="1" parent="1">
          <mxGeometry x="-100" y="350" width="120" height="65" as="geometry" />
        </mxCell>
        <mxCell id="fSRjRrEwKEqSPYzv1rZL-15" value="" style="endArrow=none;html=1;rounded=0;exitX=1;exitY=0.5;exitDx=0;exitDy=0;entryX=0;entryY=1;entryDx=0;entryDy=0;" edge="1" parent="1" source="fSRjRrEwKEqSPYzv1rZL-8">
          <mxGeometry width="50" height="50" relative="1" as="geometry">
            <mxPoint x="150" y="370" as="sourcePoint" />
            <mxPoint x="130" y="335" as="targetPoint" />
          </mxGeometry>
        </mxCell>
        <mxCell id="fSRjRrEwKEqSPYzv1rZL-16" value="worked_on" style="rhombus;whiteSpace=wrap;html=1;" vertex="1" parent="1">
          <mxGeometry x="130" y="125" width="80" height="80" as="geometry" />
        </mxCell>
        <mxCell id="fSRjRrEwKEqSPYzv1rZL-17" value="" style="endArrow=none;html=1;rounded=0;exitX=1;exitY=0.5;exitDx=0;exitDy=0;entryX=0.5;entryY=0;entryDx=0;entryDy=0;" edge="1" parent="1" source="fSRjRrEwKEqSPYzv1rZL-16" target="fSRjRrEwKEqSPYzv1rZL-1">
          <mxGeometry width="50" height="50" relative="1" as="geometry">
            <mxPoint x="350" y="280" as="sourcePoint" />
            <mxPoint x="400" y="230" as="targetPoint" />
          </mxGeometry>
        </mxCell>
        <mxCell id="fSRjRrEwKEqSPYzv1rZL-18" value="" style="endArrow=none;html=1;rounded=0;entryX=0.5;entryY=1;entryDx=0;entryDy=0;exitX=0;exitY=0;exitDx=0;exitDy=0;" edge="1" parent="1" source="fSRjRrEwKEqSPYzv1rZL-16" target="fSRjRrEwKEqSPYzv1rZL-2">
          <mxGeometry width="50" height="50" relative="1" as="geometry">
            <mxPoint x="150" y="150" as="sourcePoint" />
            <mxPoint x="200" y="100" as="targetPoint" />
          </mxGeometry>
        </mxCell>
        <mxCell id="fSRjRrEwKEqSPYzv1rZL-19" value="&lt;div&gt;role&lt;/div&gt;" style="ellipse;whiteSpace=wrap;html=1;" vertex="1" parent="1">
          <mxGeometry x="-20" y="110" width="60" height="30" as="geometry" />
        </mxCell>
        <mxCell id="fSRjRrEwKEqSPYzv1rZL-20" value="start_date" style="ellipse;whiteSpace=wrap;html=1;" vertex="1" parent="1">
          <mxGeometry x="-20" y="150" width="60" height="30" as="geometry" />
        </mxCell>
        <mxCell id="fSRjRrEwKEqSPYzv1rZL-21" value="end_date" style="ellipse;whiteSpace=wrap;html=1;" vertex="1" parent="1">
          <mxGeometry x="-20" y="190" width="60" height="30" as="geometry" />
        </mxCell>
        <mxCell id="fSRjRrEwKEqSPYzv1rZL-22" value="" style="endArrow=none;html=1;rounded=0;exitX=1;exitY=0.5;exitDx=0;exitDy=0;entryX=0;entryY=0.5;entryDx=0;entryDy=0;" edge="1" parent="1" source="fSRjRrEwKEqSPYzv1rZL-19" target="fSRjRrEwKEqSPYzv1rZL-16">
          <mxGeometry width="50" height="50" relative="1" as="geometry">
            <mxPoint x="150" y="150" as="sourcePoint" />
            <mxPoint x="200" y="100" as="targetPoint" />
          </mxGeometry>
        </mxCell>
        <mxCell id="fSRjRrEwKEqSPYzv1rZL-23" value="" style="endArrow=none;html=1;rounded=0;exitX=1;exitY=0.5;exitDx=0;exitDy=0;" edge="1" parent="1" source="fSRjRrEwKEqSPYzv1rZL-20">
          <mxGeometry width="50" height="50" relative="1" as="geometry">
            <mxPoint x="150" y="150" as="sourcePoint" />
            <mxPoint x="134" y="171" as="targetPoint" />
          </mxGeometry>
        </mxCell>
        <mxCell id="fSRjRrEwKEqSPYzv1rZL-24" value="" style="endArrow=none;html=1;rounded=0;exitX=1;exitY=0.5;exitDx=0;exitDy=0;" edge="1" parent="1" source="fSRjRrEwKEqSPYzv1rZL-21" target="fSRjRrEwKEqSPYzv1rZL-16">
          <mxGeometry width="50" height="50" relative="1" as="geometry">
            <mxPoint x="150" y="150" as="sourcePoint" />
            <mxPoint x="200" y="100" as="targetPoint" />
          </mxGeometry>
        </mxCell>
        <mxCell id="fSRjRrEwKEqSPYzv1rZL-25" value="lead_person_id" style="ellipse;whiteSpace=wrap;html=1;" vertex="1" parent="1">
          <mxGeometry x="-110" y="-90" width="100" height="30" as="geometry" />
        </mxCell>
        <mxCell id="fSRjRrEwKEqSPYzv1rZL-26" value="start_date" style="ellipse;whiteSpace=wrap;html=1;" vertex="1" parent="1">
          <mxGeometry y="-100" width="60" height="30" as="geometry" />
        </mxCell>
        <mxCell id="fSRjRrEwKEqSPYzv1rZL-27" value="end_date" style="ellipse;whiteSpace=wrap;html=1;" vertex="1" parent="1">
          <mxGeometry x="80" y="-90" width="60" height="30" as="geometry" />
        </mxCell>
        <mxCell id="fSRjRrEwKEqSPYzv1rZL-29" value="" style="endArrow=none;html=1;rounded=0;exitX=0;exitY=0;exitDx=0;exitDy=0;entryX=0.63;entryY=0.967;entryDx=0;entryDy=0;entryPerimeter=0;" edge="1" parent="1" source="fSRjRrEwKEqSPYzv1rZL-2" target="fSRjRrEwKEqSPYzv1rZL-25">
          <mxGeometry width="50" height="50" relative="1" as="geometry">
            <mxPoint x="150" y="150" as="sourcePoint" />
            <mxPoint x="200" y="100" as="targetPoint" />
          </mxGeometry>
        </mxCell>
        <mxCell id="fSRjRrEwKEqSPYzv1rZL-30" value="" style="endArrow=none;html=1;rounded=0;exitX=0.25;exitY=0;exitDx=0;exitDy=0;entryX=0;entryY=1;entryDx=0;entryDy=0;" edge="1" parent="1" source="fSRjRrEwKEqSPYzv1rZL-2" target="fSRjRrEwKEqSPYzv1rZL-26">
          <mxGeometry width="50" height="50" relative="1" as="geometry">
            <mxPoint x="150" y="150" as="sourcePoint" />
            <mxPoint x="200" y="100" as="targetPoint" />
          </mxGeometry>
        </mxCell>
        <mxCell id="fSRjRrEwKEqSPYzv1rZL-31" value="" style="endArrow=none;html=1;rounded=0;exitX=0.75;exitY=0;exitDx=0;exitDy=0;entryX=0;entryY=1;entryDx=0;entryDy=0;" edge="1" parent="1" source="fSRjRrEwKEqSPYzv1rZL-2" target="fSRjRrEwKEqSPYzv1rZL-27">
          <mxGeometry width="50" height="50" relative="1" as="geometry">
            <mxPoint x="150" y="150" as="sourcePoint" />
            <mxPoint x="200" y="100" as="targetPoint" />
          </mxGeometry>
        </mxCell>
        <mxCell id="fSRjRrEwKEqSPYzv1rZL-32" value="" style="endArrow=none;html=1;rounded=0;entryX=1;entryY=0.5;entryDx=0;entryDy=0;exitX=0;exitY=0.5;exitDx=0;exitDy=0;" edge="1" parent="1" source="fSRjRrEwKEqSPYzv1rZL-2" target="fSRjRrEwKEqSPYzv1rZL-33">
          <mxGeometry width="50" height="50" relative="1" as="geometry">
            <mxPoint x="150" y="150" as="sourcePoint" />
            <mxPoint x="200" y="100" as="targetPoint" />
          </mxGeometry>
        </mxCell>
        <mxCell id="fSRjRrEwKEqSPYzv1rZL-33" value="project_title" style="ellipse;whiteSpace=wrap;html=1;" vertex="1" parent="1">
          <mxGeometry x="-170" width="100" height="30" as="geometry" />
        </mxCell>
        <mxCell id="fSRjRrEwKEqSPYzv1rZL-34" value="&lt;u&gt;project_id&lt;/u&gt;" style="ellipse;whiteSpace=wrap;html=1;" vertex="1" parent="1">
          <mxGeometry x="-170" y="40" width="100" height="30" as="geometry" />
        </mxCell>
        <mxCell id="fSRjRrEwKEqSPYzv1rZL-37" value="" style="endArrow=none;html=1;rounded=0;exitX=1;exitY=0.5;exitDx=0;exitDy=0;entryX=0;entryY=0.75;entryDx=0;entryDy=0;" edge="1" parent="1" source="fSRjRrEwKEqSPYzv1rZL-34" target="fSRjRrEwKEqSPYzv1rZL-2">
          <mxGeometry width="50" height="50" relative="1" as="geometry">
            <mxPoint x="150" y="150" as="sourcePoint" />
            <mxPoint x="200" y="100" as="targetPoint" />
          </mxGeometry>
        </mxCell>
        <mxCell id="fSRjRrEwKEqSPYzv1rZL-38" value="&lt;u&gt;conference_id&lt;/u&gt;" style="ellipse;whiteSpace=wrap;html=1;" vertex="1" parent="1">
          <mxGeometry x="1235" y="-220" width="100" height="40" as="geometry" />
        </mxCell>
        <mxCell id="fSRjRrEwKEqSPYzv1rZL-39" value="" style="endArrow=none;html=1;rounded=0;entryX=1;entryY=0.5;entryDx=0;entryDy=0;exitX=0;exitY=1;exitDx=0;exitDy=0;" edge="1" parent="1" source="fSRjRrEwKEqSPYzv1rZL-38" target="fSRjRrEwKEqSPYzv1rZL-3">
          <mxGeometry width="50" height="50" relative="1" as="geometry">
            <mxPoint x="965" y="20" as="sourcePoint" />
            <mxPoint x="1217.5" y="-170" as="targetPoint" />
          </mxGeometry>
        </mxCell>
        <mxCell id="fSRjRrEwKEqSPYzv1rZL-41" value="conf_name" style="ellipse;whiteSpace=wrap;html=1;" vertex="1" parent="1">
          <mxGeometry x="1215" y="-310" width="100" height="30" as="geometry" />
        </mxCell>
        <mxCell id="fSRjRrEwKEqSPYzv1rZL-42" value="date" style="ellipse;whiteSpace=wrap;html=1;" vertex="1" parent="1">
          <mxGeometry x="1225" y="-260" width="100" height="30" as="geometry" />
        </mxCell>
        <mxCell id="fSRjRrEwKEqSPYzv1rZL-43" value="location" style="ellipse;whiteSpace=wrap;html=1;" vertex="1" parent="1">
          <mxGeometry x="1075" y="-320" width="100" height="30" as="geometry" />
        </mxCell>
        <mxCell id="fSRjRrEwKEqSPYzv1rZL-44" value="" style="endArrow=none;html=1;rounded=0;entryX=0;entryY=1;entryDx=0;entryDy=0;exitX=1;exitY=0;exitDx=0;exitDy=0;" edge="1" parent="1" source="fSRjRrEwKEqSPYzv1rZL-3" target="fSRjRrEwKEqSPYzv1rZL-41">
          <mxGeometry width="50" height="50" relative="1" as="geometry">
            <mxPoint x="1247.5" y="-170" as="sourcePoint" />
            <mxPoint x="975" y="-30" as="targetPoint" />
          </mxGeometry>
        </mxCell>
        <mxCell id="fSRjRrEwKEqSPYzv1rZL-46" value="" style="endArrow=none;html=1;rounded=0;entryX=0;entryY=1;entryDx=0;entryDy=0;exitX=1;exitY=0.25;exitDx=0;exitDy=0;" edge="1" parent="1" source="fSRjRrEwKEqSPYzv1rZL-3" target="fSRjRrEwKEqSPYzv1rZL-42">
          <mxGeometry width="50" height="50" relative="1" as="geometry">
            <mxPoint x="895" y="-10" as="sourcePoint" />
            <mxPoint x="945" y="-60" as="targetPoint" />
          </mxGeometry>
        </mxCell>
        <mxCell id="fSRjRrEwKEqSPYzv1rZL-47" value="&lt;u&gt;presentation_id&lt;/u&gt;" style="ellipse;whiteSpace=wrap;html=1;" vertex="1" parent="1">
          <mxGeometry x="1325" y="-145" width="100" height="40" as="geometry" />
        </mxCell>
        <mxCell id="fSRjRrEwKEqSPYzv1rZL-48" value="" style="endArrow=none;html=1;rounded=0;entryX=0;entryY=0.5;entryDx=0;entryDy=0;exitX=1;exitY=0;exitDx=0;exitDy=0;" edge="1" parent="1" target="fSRjRrEwKEqSPYzv1rZL-47">
          <mxGeometry width="50" height="50" relative="1" as="geometry">
            <mxPoint x="1285" y="-70" as="sourcePoint" />
            <mxPoint x="955" y="-75" as="targetPoint" />
          </mxGeometry>
        </mxCell>
        <mxCell id="fSRjRrEwKEqSPYzv1rZL-50" value="Pres_title" style="ellipse;whiteSpace=wrap;html=1;" vertex="1" parent="1">
          <mxGeometry x="1325" y="-90" width="80" height="30" as="geometry" />
        </mxCell>
        <mxCell id="fSRjRrEwKEqSPYzv1rZL-51" value="" style="endArrow=none;html=1;rounded=0;entryX=0;entryY=0.5;entryDx=0;entryDy=0;exitX=1;exitY=0.5;exitDx=0;exitDy=0;" edge="1" parent="1" target="fSRjRrEwKEqSPYzv1rZL-50">
          <mxGeometry width="50" height="50" relative="1" as="geometry">
            <mxPoint x="1285" y="-40" as="sourcePoint" />
            <mxPoint x="1115" y="-15" as="targetPoint" />
          </mxGeometry>
        </mxCell>
        <mxCell id="fSRjRrEwKEqSPYzv1rZL-52" value="abstract" style="ellipse;whiteSpace=wrap;html=1;" vertex="1" parent="1">
          <mxGeometry x="1570" y="-30" width="70" height="40" as="geometry" />
        </mxCell>
        <mxCell id="fSRjRrEwKEqSPYzv1rZL-53" value="" style="endArrow=none;html=1;rounded=0;entryX=0;entryY=0.5;entryDx=0;entryDy=0;exitX=1;exitY=0.75;exitDx=0;exitDy=0;" edge="1" parent="1" source="fSRjRrEwKEqSPYzv1rZL-4" target="fSRjRrEwKEqSPYzv1rZL-52">
          <mxGeometry width="50" height="50" relative="1" as="geometry">
            <mxPoint x="850" y="160" as="sourcePoint" />
            <mxPoint x="900" y="110" as="targetPoint" />
          </mxGeometry>
        </mxCell>
        <mxCell id="fSRjRrEwKEqSPYzv1rZL-54" value="presents" style="rhombus;whiteSpace=wrap;html=1;" vertex="1" parent="1">
          <mxGeometry x="990" y="-80" width="110" height="50" as="geometry" />
        </mxCell>
        <mxCell id="fSRjRrEwKEqSPYzv1rZL-57" value="" style="endArrow=none;html=1;rounded=0;entryX=0;entryY=0.75;entryDx=0;entryDy=0;" edge="1" parent="1" source="fSRjRrEwKEqSPYzv1rZL-54" target="fSRjRrEwKEqSPYzv1rZL-4">
          <mxGeometry width="50" height="50" relative="1" as="geometry">
            <mxPoint x="660" y="175" as="sourcePoint" />
            <mxPoint x="710" y="125" as="targetPoint" />
          </mxGeometry>
        </mxCell>
        <mxCell id="Z-Az1LUCPEZVecz7lOXt-3" value="" style="edgeStyle=orthogonalEdgeStyle;rounded=0;orthogonalLoop=1;jettySize=auto;html=1;" edge="1" parent="1" source="fSRjRrEwKEqSPYzv1rZL-58" target="fSRjRrEwKEqSPYzv1rZL-5">
          <mxGeometry relative="1" as="geometry" />
        </mxCell>
        <mxCell id="fSRjRrEwKEqSPYzv1rZL-58" value="works_in" style="rhombus;whiteSpace=wrap;html=1;" vertex="1" parent="1">
          <mxGeometry x="530" y="300" width="80" height="50" as="geometry" />
        </mxCell>
        <mxCell id="fSRjRrEwKEqSPYzv1rZL-59" value="" style="endArrow=none;html=1;rounded=0;entryX=1;entryY=1;entryDx=0;entryDy=0;exitX=0;exitY=0;exitDx=0;exitDy=0;" edge="1" parent="1" source="fSRjRrEwKEqSPYzv1rZL-58" target="fSRjRrEwKEqSPYzv1rZL-1">
          <mxGeometry width="50" height="50" relative="1" as="geometry">
            <mxPoint x="460" y="310" as="sourcePoint" />
            <mxPoint x="510" y="260" as="targetPoint" />
          </mxGeometry>
        </mxCell>
        <mxCell id="fSRjRrEwKEqSPYzv1rZL-61" value="&lt;div&gt;belongs_to&lt;/div&gt;" style="rhombus;whiteSpace=wrap;html=1;" vertex="1" parent="1">
          <mxGeometry x="720" y="470.86" width="90" height="60" as="geometry" />
        </mxCell>
        <mxCell id="fSRjRrEwKEqSPYzv1rZL-62" value="" style="endArrow=none;html=1;rounded=0;entryX=0;entryY=0.5;entryDx=0;entryDy=0;exitX=1;exitY=0.5;exitDx=0;exitDy=0;" edge="1" parent="1" source="fSRjRrEwKEqSPYzv1rZL-5" target="fSRjRrEwKEqSPYzv1rZL-61">
          <mxGeometry width="50" height="50" relative="1" as="geometry">
            <mxPoint x="460" y="310" as="sourcePoint" />
            <mxPoint x="510" y="260" as="targetPoint" />
          </mxGeometry>
        </mxCell>
        <mxCell id="fSRjRrEwKEqSPYzv1rZL-64" value="institution_phone" style="ellipse;whiteSpace=wrap;html=1;" vertex="1" parent="1">
          <mxGeometry x="1050" y="540" width="180" height="50" as="geometry" />
        </mxCell>
        <mxCell id="fSRjRrEwKEqSPYzv1rZL-66" value="institution_address" style="ellipse;whiteSpace=wrap;html=1;" vertex="1" parent="1">
          <mxGeometry x="947.5" y="425" width="110" height="54.14" as="geometry" />
        </mxCell>
        <mxCell id="fSRjRrEwKEqSPYzv1rZL-67" value="&lt;u&gt;institution_id&lt;/u&gt;" style="ellipse;whiteSpace=wrap;html=1;" vertex="1" parent="1">
          <mxGeometry x="847.5" y="380.86" width="100" height="40" as="geometry" />
        </mxCell>
        <mxCell id="fSRjRrEwKEqSPYzv1rZL-69" value="" style="endArrow=none;html=1;rounded=0;entryX=0.5;entryY=1;entryDx=0;entryDy=0;exitX=0.25;exitY=0;exitDx=0;exitDy=0;" edge="1" parent="1" source="fSRjRrEwKEqSPYzv1rZL-6" target="fSRjRrEwKEqSPYzv1rZL-67">
          <mxGeometry width="50" height="50" relative="1" as="geometry">
            <mxPoint x="617.5" y="350.86" as="sourcePoint" />
            <mxPoint x="667.5" y="300.86" as="targetPoint" />
          </mxGeometry>
        </mxCell>
        <mxCell id="fSRjRrEwKEqSPYzv1rZL-70" value="" style="endArrow=none;html=1;rounded=0;exitX=0.5;exitY=0;exitDx=0;exitDy=0;" edge="1" parent="1" source="fSRjRrEwKEqSPYzv1rZL-6" target="fSRjRrEwKEqSPYzv1rZL-66">
          <mxGeometry width="50" height="50" relative="1" as="geometry">
            <mxPoint x="837.5" y="355.86" as="sourcePoint" />
            <mxPoint x="1095.6801948466054" y="365.0021356237313" as="targetPoint" />
          </mxGeometry>
        </mxCell>
        <mxCell id="fSRjRrEwKEqSPYzv1rZL-72" value="" style="endArrow=none;html=1;rounded=0;entryX=0;entryY=0.5;entryDx=0;entryDy=0;exitX=1;exitY=0.75;exitDx=0;exitDy=0;" edge="1" parent="1" source="fSRjRrEwKEqSPYzv1rZL-6" target="fSRjRrEwKEqSPYzv1rZL-64">
          <mxGeometry width="50" height="50" relative="1" as="geometry">
            <mxPoint x="687.5" y="350.86" as="sourcePoint" />
            <mxPoint x="737.5" y="300.86" as="targetPoint" />
          </mxGeometry>
        </mxCell>
        <mxCell id="fSRjRrEwKEqSPYzv1rZL-73" value="person_email" style="ellipse;whiteSpace=wrap;html=1;" vertex="1" parent="1">
          <mxGeometry x="300" y="395.43" width="90" height="55" as="geometry" />
        </mxCell>
        <mxCell id="fSRjRrEwKEqSPYzv1rZL-74" value="person_phone" style="ellipse;whiteSpace=wrap;html=1;" vertex="1" parent="1">
          <mxGeometry x="450" y="340.86" width="90" height="59.14" as="geometry" />
        </mxCell>
        <mxCell id="fSRjRrEwKEqSPYzv1rZL-75" value="person_name" style="ellipse;whiteSpace=wrap;html=1;" vertex="1" parent="1">
          <mxGeometry x="370" y="320" width="95" height="30" as="geometry" />
        </mxCell>
        <mxCell id="fSRjRrEwKEqSPYzv1rZL-78" value="" style="endArrow=none;html=1;rounded=0;entryX=0.75;entryY=1;entryDx=0;entryDy=0;exitX=0.5;exitY=0;exitDx=0;exitDy=0;" edge="1" parent="1" source="fSRjRrEwKEqSPYzv1rZL-74" target="fSRjRrEwKEqSPYzv1rZL-1">
          <mxGeometry width="50" height="50" relative="1" as="geometry">
            <mxPoint x="570" y="300" as="sourcePoint" />
            <mxPoint x="580" y="260" as="targetPoint" />
          </mxGeometry>
        </mxCell>
        <mxCell id="fSRjRrEwKEqSPYzv1rZL-79" value="" style="endArrow=none;html=1;rounded=0;entryX=0.75;entryY=0;entryDx=0;entryDy=0;exitX=0.5;exitY=0;exitDx=0;exitDy=0;" edge="1" parent="1" source="fSRjRrEwKEqSPYzv1rZL-76" target="fSRjRrEwKEqSPYzv1rZL-1">
          <mxGeometry width="50" height="50" relative="1" as="geometry">
            <mxPoint x="530" y="310" as="sourcePoint" />
            <mxPoint x="580" y="260" as="targetPoint" />
          </mxGeometry>
        </mxCell>
        <mxCell id="fSRjRrEwKEqSPYzv1rZL-80" value="" style="endArrow=none;html=1;rounded=0;entryX=0.5;entryY=1;entryDx=0;entryDy=0;exitX=0.5;exitY=0;exitDx=0;exitDy=0;" edge="1" parent="1" source="fSRjRrEwKEqSPYzv1rZL-75" target="fSRjRrEwKEqSPYzv1rZL-1">
          <mxGeometry width="50" height="50" relative="1" as="geometry">
            <mxPoint x="530" y="310" as="sourcePoint" />
            <mxPoint x="580" y="260" as="targetPoint" />
          </mxGeometry>
        </mxCell>
        <mxCell id="fSRjRrEwKEqSPYzv1rZL-81" value="" style="endArrow=none;html=1;rounded=0;entryX=0.5;entryY=0;entryDx=0;entryDy=0;exitX=0.5;exitY=1;exitDx=0;exitDy=0;" edge="1" parent="1" source="fSRjRrEwKEqSPYzv1rZL-77" target="fSRjRrEwKEqSPYzv1rZL-1">
          <mxGeometry width="50" height="50" relative="1" as="geometry">
            <mxPoint x="530" y="310" as="sourcePoint" />
            <mxPoint x="580" y="260" as="targetPoint" />
          </mxGeometry>
        </mxCell>
        <mxCell id="fSRjRrEwKEqSPYzv1rZL-77" value="bio" style="ellipse;whiteSpace=wrap;html=1;" vertex="1" parent="1">
          <mxGeometry x="590" y="140" width="60" height="30" as="geometry" />
        </mxCell>
        <mxCell id="fSRjRrEwKEqSPYzv1rZL-76" value="&lt;u&gt;person_id&lt;/u&gt;" style="ellipse;whiteSpace=wrap;html=1;" vertex="1" parent="1">
          <mxGeometry x="610" y="190" width="70" height="40" as="geometry" />
        </mxCell>
        <mxCell id="fSRjRrEwKEqSPYzv1rZL-83" value="department_name" style="ellipse;whiteSpace=wrap;html=1;" vertex="1" parent="1">
          <mxGeometry x="745" y="610" width="145" height="60" as="geometry" />
        </mxCell>
        <mxCell id="fSRjRrEwKEqSPYzv1rZL-86" value="department_email" style="ellipse;whiteSpace=wrap;html=1;" vertex="1" parent="1">
          <mxGeometry x="580" y="605" width="120" height="60" as="geometry" />
        </mxCell>
        <mxCell id="fSRjRrEwKEqSPYzv1rZL-87" value="&lt;u&gt;department_id&lt;/u&gt;" style="ellipse;whiteSpace=wrap;html=1;" vertex="1" parent="1">
          <mxGeometry x="465" y="610" width="85" height="40" as="geometry" />
        </mxCell>
        <mxCell id="fSRjRrEwKEqSPYzv1rZL-88" value="" style="endArrow=none;html=1;rounded=0;entryX=0.25;entryY=1;entryDx=0;entryDy=0;exitX=0.5;exitY=0;exitDx=0;exitDy=0;" edge="1" parent="1" source="fSRjRrEwKEqSPYzv1rZL-87" target="fSRjRrEwKEqSPYzv1rZL-5">
          <mxGeometry width="50" height="50" relative="1" as="geometry">
            <mxPoint x="530" y="380" as="sourcePoint" />
            <mxPoint x="580" y="330" as="targetPoint" />
          </mxGeometry>
        </mxCell>
        <mxCell id="fSRjRrEwKEqSPYzv1rZL-91" value="" style="endArrow=none;html=1;rounded=0;entryX=1;entryY=1;entryDx=0;entryDy=0;exitX=0.5;exitY=0;exitDx=0;exitDy=0;" edge="1" parent="1" source="fSRjRrEwKEqSPYzv1rZL-83" target="fSRjRrEwKEqSPYzv1rZL-5">
          <mxGeometry width="50" height="50" relative="1" as="geometry">
            <mxPoint x="530" y="380" as="sourcePoint" />
            <mxPoint x="580" y="330" as="targetPoint" />
          </mxGeometry>
        </mxCell>
        <mxCell id="fSRjRrEwKEqSPYzv1rZL-96" value="" style="endArrow=none;html=1;rounded=0;entryX=0.5;entryY=1;entryDx=0;entryDy=0;exitX=0.5;exitY=0;exitDx=0;exitDy=0;" edge="1" parent="1" source="fSRjRrEwKEqSPYzv1rZL-86" target="fSRjRrEwKEqSPYzv1rZL-5">
          <mxGeometry width="50" height="50" relative="1" as="geometry">
            <mxPoint x="500" y="320" as="sourcePoint" />
            <mxPoint x="550" y="270" as="targetPoint" />
          </mxGeometry>
        </mxCell>
        <mxCell id="SutmxqVTJUlz39ehMCIc-1" value="" style="endArrow=classic;html=1;rounded=0;entryX=0;entryY=0.5;entryDx=0;entryDy=0;" edge="1" parent="1" source="RMJW7IfcI_I-CYrQdMrR-11" target="fSRjRrEwKEqSPYzv1rZL-1">
          <mxGeometry width="50" height="50" relative="1" as="geometry">
            <mxPoint x="130" y="400.0000000000002" as="sourcePoint" />
            <mxPoint x="340" y="430" as="targetPoint" />
            <Array as="points">
              <mxPoint x="330" y="280" />
            </Array>
          </mxGeometry>
        </mxCell>
        <mxCell id="2bOGLXo_w7dRbb6Q6lHF-3" value="" style="endArrow=none;html=1;rounded=0;entryX=0;entryY=1;entryDx=0;entryDy=0;" edge="1" parent="1" source="X6PnvQEDPY1x2IoHHNuD-13" target="fSRjRrEwKEqSPYzv1rZL-1">
          <mxGeometry width="50" height="50" relative="1" as="geometry">
            <mxPoint x="251.5081898484898" y="421.1475492564473" as="sourcePoint" />
            <mxPoint x="600" y="280" as="targetPoint" />
          </mxGeometry>
        </mxCell>
        <mxCell id="RMJW7IfcI_I-CYrQdMrR-2" value="institution_name" style="ellipse;whiteSpace=wrap;html=1;" vertex="1" parent="1">
          <mxGeometry x="1025" y="635" width="115" height="30" as="geometry" />
        </mxCell>
        <mxCell id="RMJW7IfcI_I-CYrQdMrR-5" value="" style="endArrow=none;html=1;rounded=0;entryX=0.608;entryY=1.042;entryDx=0;entryDy=0;exitX=0;exitY=0.5;exitDx=0;exitDy=0;entryPerimeter=0;" edge="1" parent="1" source="RMJW7IfcI_I-CYrQdMrR-2" target="fSRjRrEwKEqSPYzv1rZL-6">
          <mxGeometry width="50" height="50" relative="1" as="geometry">
            <mxPoint x="937.5" y="586.86" as="sourcePoint" />
            <mxPoint x="980.5" y="550.86" as="targetPoint" />
            <Array as="points" />
          </mxGeometry>
        </mxCell>
        <mxCell id="RMJW7IfcI_I-CYrQdMrR-6" value="" style="endArrow=none;html=1;rounded=0;entryX=0.5;entryY=1;entryDx=0;entryDy=0;exitX=0.5;exitY=0;exitDx=0;exitDy=0;" edge="1" parent="1" source="fSRjRrEwKEqSPYzv1rZL-3" target="fSRjRrEwKEqSPYzv1rZL-43">
          <mxGeometry width="50" height="50" relative="1" as="geometry">
            <mxPoint x="1035" y="-174" as="sourcePoint" />
            <mxPoint x="1078" y="-210" as="targetPoint" />
            <Array as="points" />
          </mxGeometry>
        </mxCell>
        <mxCell id="RMJW7IfcI_I-CYrQdMrR-7" value="hosted at" style="rhombus;whiteSpace=wrap;html=1;" vertex="1" parent="1">
          <mxGeometry x="1145" y="-160" width="110" height="50" as="geometry" />
        </mxCell>
        <mxCell id="2bOGLXo_w7dRbb6Q6lHF-5" value="city" style="ellipse;whiteSpace=wrap;html=1;" vertex="1" parent="1">
          <mxGeometry x="1030.12" y="248" width="90" height="40" as="geometry" />
        </mxCell>
        <mxCell id="RMJW7IfcI_I-CYrQdMrR-9" value="" style="endArrow=none;html=1;rounded=0;exitX=0.417;exitY=0.008;exitDx=0;exitDy=0;exitPerimeter=0;" edge="1" parent="1" target="RMJW7IfcI_I-CYrQdMrR-7">
          <mxGeometry width="50" height="50" relative="1" as="geometry">
            <mxPoint x="1215.04" y="-69.51999999999998" as="sourcePoint" />
            <mxPoint x="1205" y="-110" as="targetPoint" />
            <Array as="points" />
          </mxGeometry>
        </mxCell>
        <mxCell id="2bOGLXo_w7dRbb6Q6lHF-8" value="zip_code" style="ellipse;whiteSpace=wrap;html=1;" vertex="1" parent="1">
          <mxGeometry x="1153.87" y="408" width="90" height="40" as="geometry" />
        </mxCell>
        <mxCell id="2bOGLXo_w7dRbb6Q6lHF-7" value="state" style="ellipse;whiteSpace=wrap;html=1;" vertex="1" parent="1">
          <mxGeometry x="1137.62" y="358" width="90" height="40" as="geometry" />
        </mxCell>
        <mxCell id="2bOGLXo_w7dRbb6Q6lHF-6" value="street" style="ellipse;whiteSpace=wrap;html=1;" vertex="1" parent="1">
          <mxGeometry x="1090.12" y="288" width="90" height="40" as="geometry" />
        </mxCell>
        <mxCell id="RMJW7IfcI_I-CYrQdMrR-10" style="rounded=0;orthogonalLoop=1;jettySize=auto;html=1;exitX=0.327;exitY=0.13;exitDx=0;exitDy=0;entryX=0.575;entryY=1.025;entryDx=0;entryDy=0;exitPerimeter=0;entryPerimeter=0;" edge="1" parent="1" source="RMJW7IfcI_I-CYrQdMrR-7" target="fSRjRrEwKEqSPYzv1rZL-3">
          <mxGeometry relative="1" as="geometry">
            <mxPoint x="1240" y="-170" as="sourcePoint" />
            <mxPoint x="1155" y="-165" as="targetPoint" />
          </mxGeometry>
        </mxCell>
        <mxCell id="2bOGLXo_w7dRbb6Q6lHF-9" value="" style="endArrow=none;html=1;rounded=0;entryX=0.5;entryY=1;entryDx=0;entryDy=0;" edge="1" parent="1" source="fSRjRrEwKEqSPYzv1rZL-66" target="2bOGLXo_w7dRbb6Q6lHF-5">
          <mxGeometry width="50" height="50" relative="1" as="geometry">
            <mxPoint x="1006" y="410" as="sourcePoint" />
            <mxPoint x="1077.62" y="303" as="targetPoint" />
          </mxGeometry>
        </mxCell>
        <mxCell id="2bOGLXo_w7dRbb6Q6lHF-10" value="" style="endArrow=none;html=1;rounded=0;" edge="1" parent="1" source="fSRjRrEwKEqSPYzv1rZL-66" target="2bOGLXo_w7dRbb6Q6lHF-6">
          <mxGeometry width="50" height="50" relative="1" as="geometry">
            <mxPoint x="1042.354241282541" y="407.5248933451155" as="sourcePoint" />
            <mxPoint x="1227.62" y="473" as="targetPoint" />
          </mxGeometry>
        </mxCell>
        <mxCell id="2bOGLXo_w7dRbb6Q6lHF-11" value="" style="endArrow=none;html=1;rounded=0;" edge="1" parent="1" source="fSRjRrEwKEqSPYzv1rZL-66" target="2bOGLXo_w7dRbb6Q6lHF-8">
          <mxGeometry width="50" height="50" relative="1" as="geometry">
            <mxPoint x="1070.104784191813" y="426.52005530857605" as="sourcePoint" />
            <mxPoint x="1227.62" y="398" as="targetPoint" />
          </mxGeometry>
        </mxCell>
        <mxCell id="2bOGLXo_w7dRbb6Q6lHF-12" value="" style="endArrow=none;html=1;rounded=0;" edge="1" parent="1" source="fSRjRrEwKEqSPYzv1rZL-66" target="2bOGLXo_w7dRbb6Q6lHF-7">
          <mxGeometry width="50" height="50" relative="1" as="geometry">
            <mxPoint x="1062.3220795982334" y="414.7475191338676" as="sourcePoint" />
            <mxPoint x="1207.62" y="443" as="targetPoint" />
          </mxGeometry>
        </mxCell>
        <mxCell id="RMJW7IfcI_I-CYrQdMrR-11" value="has" style="shape=rhombus;double=1;perimeter=rhombusPerimeter;whiteSpace=wrap;html=1;align=center;" vertex="1" parent="1">
          <mxGeometry x="100" y="290" width="120" height="60" as="geometry" />
        </mxCell>
        <mxCell id="2bOGLXo_w7dRbb6Q6lHF-14" value="city" style="ellipse;whiteSpace=wrap;html=1;" vertex="1" parent="1">
          <mxGeometry x="955" y="-390" width="90" height="40" as="geometry" />
        </mxCell>
        <mxCell id="2bOGLXo_w7dRbb6Q6lHF-15" value="zipcode" style="ellipse;whiteSpace=wrap;html=1;" vertex="1" parent="1">
          <mxGeometry x="1227.5" y="-380" width="90" height="40" as="geometry" />
        </mxCell>
        <mxCell id="2bOGLXo_w7dRbb6Q6lHF-16" value="state" style="ellipse;whiteSpace=wrap;html=1;" vertex="1" parent="1">
          <mxGeometry x="1145" y="-410" width="90" height="40" as="geometry" />
        </mxCell>
        <mxCell id="2bOGLXo_w7dRbb6Q6lHF-17" value="street" style="ellipse;whiteSpace=wrap;html=1;" vertex="1" parent="1">
          <mxGeometry x="1055" y="-410" width="90" height="40" as="geometry" />
        </mxCell>
        <mxCell id="RMJW7IfcI_I-CYrQdMrR-12" value="" style="rounded=0;orthogonalLoop=1;jettySize=auto;html=1;entryX=0;entryY=0.5;entryDx=0;entryDy=0;exitX=1;exitY=1;exitDx=0;exitDy=0;" edge="1" parent="1" source="fSRjRrEwKEqSPYzv1rZL-61" target="fSRjRrEwKEqSPYzv1rZL-6">
          <mxGeometry relative="1" as="geometry">
            <mxPoint x="810" y="525" as="sourcePoint" />
            <mxPoint x="810" y="605" as="targetPoint" />
          </mxGeometry>
        </mxCell>
        <mxCell id="2bOGLXo_w7dRbb6Q6lHF-18" value="" style="endArrow=none;html=1;rounded=0;" edge="1" parent="1" source="fSRjRrEwKEqSPYzv1rZL-43" target="2bOGLXo_w7dRbb6Q6lHF-14">
          <mxGeometry width="50" height="50" relative="1" as="geometry">
            <mxPoint x="1020" y="-430" as="sourcePoint" />
            <mxPoint x="1070" y="-480" as="targetPoint" />
          </mxGeometry>
        </mxCell>
        <mxCell id="2bOGLXo_w7dRbb6Q6lHF-19" value="" style="endArrow=none;html=1;rounded=0;" edge="1" parent="1" source="fSRjRrEwKEqSPYzv1rZL-43" target="2bOGLXo_w7dRbb6Q6lHF-17">
          <mxGeometry width="50" height="50" relative="1" as="geometry">
            <mxPoint x="1155" y="-320" as="sourcePoint" />
            <mxPoint x="1205" y="-370" as="targetPoint" />
          </mxGeometry>
        </mxCell>
        <mxCell id="2bOGLXo_w7dRbb6Q6lHF-20" value="" style="endArrow=none;html=1;rounded=0;" edge="1" parent="1" source="fSRjRrEwKEqSPYzv1rZL-43" target="2bOGLXo_w7dRbb6Q6lHF-16">
          <mxGeometry width="50" height="50" relative="1" as="geometry">
            <mxPoint x="1135" y="-300" as="sourcePoint" />
            <mxPoint x="1185" y="-350" as="targetPoint" />
          </mxGeometry>
        </mxCell>
        <mxCell id="2bOGLXo_w7dRbb6Q6lHF-21" value="" style="endArrow=none;html=1;rounded=0;" edge="1" parent="1" source="fSRjRrEwKEqSPYzv1rZL-43" target="2bOGLXo_w7dRbb6Q6lHF-15">
          <mxGeometry width="50" height="50" relative="1" as="geometry">
            <mxPoint x="1155" y="-300" as="sourcePoint" />
            <mxPoint x="1205" y="-350" as="targetPoint" />
          </mxGeometry>
        </mxCell>
        <mxCell id="2bOGLXo_w7dRbb6Q6lHF-24" value="&lt;div&gt;role&lt;/div&gt;" style="ellipse;whiteSpace=wrap;html=1;" vertex="1" parent="1">
          <mxGeometry x="-310" y="315" width="60" height="30" as="geometry" />
        </mxCell>
        <mxCell id="2bOGLXo_w7dRbb6Q6lHF-25" value="start_date" style="ellipse;whiteSpace=wrap;html=1;" vertex="1" parent="1">
          <mxGeometry x="-310" y="355" width="60" height="30" as="geometry" />
        </mxCell>
        <mxCell id="2bOGLXo_w7dRbb6Q6lHF-26" value="end_date" style="ellipse;whiteSpace=wrap;html=1;" vertex="1" parent="1">
          <mxGeometry x="-310" y="395" width="60" height="30" as="geometry" />
        </mxCell>
        <mxCell id="2bOGLXo_w7dRbb6Q6lHF-27" value="institution_name" style="ellipse;whiteSpace=wrap;html=1;" vertex="1" parent="1">
          <mxGeometry x="-330" y="450.43000000000006" width="120" height="39.14" as="geometry" />
        </mxCell>
        <mxCell id="2bOGLXo_w7dRbb6Q6lHF-28" value="" style="endArrow=none;html=1;rounded=0;entryX=0;entryY=0.75;entryDx=0;entryDy=0;" edge="1" parent="1" target="fSRjRrEwKEqSPYzv1rZL-7">
          <mxGeometry width="50" height="50" relative="1" as="geometry">
            <mxPoint x="-220" y="463" as="sourcePoint" />
            <mxPoint x="-170" y="413" as="targetPoint" />
          </mxGeometry>
        </mxCell>
        <mxCell id="2bOGLXo_w7dRbb6Q6lHF-29" value="" style="endArrow=none;html=1;rounded=0;" edge="1" parent="1" source="2bOGLXo_w7dRbb6Q6lHF-26" target="fSRjRrEwKEqSPYzv1rZL-7">
          <mxGeometry width="50" height="50" relative="1" as="geometry">
            <mxPoint x="-200" y="415" as="sourcePoint" />
            <mxPoint x="-140" y="365" as="targetPoint" />
          </mxGeometry>
        </mxCell>
        <mxCell id="2bOGLXo_w7dRbb6Q6lHF-30" value="" style="endArrow=none;html=1;rounded=0;" edge="1" parent="1" source="2bOGLXo_w7dRbb6Q6lHF-25" target="fSRjRrEwKEqSPYzv1rZL-7">
          <mxGeometry width="50" height="50" relative="1" as="geometry">
            <mxPoint x="-210" y="365" as="sourcePoint" />
            <mxPoint x="-160" y="315" as="targetPoint" />
            <Array as="points">
              <mxPoint x="-100" y="385" />
            </Array>
          </mxGeometry>
        </mxCell>
        <mxCell id="2bOGLXo_w7dRbb6Q6lHF-31" value="" style="endArrow=none;html=1;rounded=0;" edge="1" parent="1" source="2bOGLXo_w7dRbb6Q6lHF-24" target="fSRjRrEwKEqSPYzv1rZL-7">
          <mxGeometry width="50" height="50" relative="1" as="geometry">
            <mxPoint x="-210" y="295" as="sourcePoint" />
            <mxPoint x="-160" y="245" as="targetPoint" />
          </mxGeometry>
        </mxCell>
        <mxCell id="2bOGLXo_w7dRbb6Q6lHF-32" value="&lt;u&gt;work_history_id&lt;/u&gt;" style="ellipse;whiteSpace=wrap;html=1;" vertex="1" parent="1">
          <mxGeometry x="-210" y="475.86" width="120" height="39.14" as="geometry" />
        </mxCell>
        <mxCell id="2bOGLXo_w7dRbb6Q6lHF-33" value="" style="endArrow=none;html=1;rounded=0;" edge="1" parent="1" source="2bOGLXo_w7dRbb6Q6lHF-32" target="fSRjRrEwKEqSPYzv1rZL-7">
          <mxGeometry width="50" height="50" relative="1" as="geometry">
            <mxPoint x="-210" y="443" as="sourcePoint" />
            <mxPoint x="-90" y="375" as="targetPoint" />
          </mxGeometry>
        </mxCell>
        <mxCell id="2bOGLXo_w7dRbb6Q6lHF-34" value="expertise_match" style="rhombus;whiteSpace=wrap;html=1;" vertex="1" parent="1">
          <mxGeometry x="285" y="-45" width="140" height="120" as="geometry" />
        </mxCell>
        <mxCell id="2bOGLXo_w7dRbb6Q6lHF-35" value="" style="endArrow=none;html=1;rounded=0;" edge="1" parent="1" source="2bOGLXo_w7dRbb6Q6lHF-34" target="fSRjRrEwKEqSPYzv1rZL-1">
          <mxGeometry width="50" height="50" relative="1" as="geometry">
            <mxPoint x="220" y="290" as="sourcePoint" />
            <mxPoint x="270" y="240" as="targetPoint" />
          </mxGeometry>
        </mxCell>
        <mxCell id="2bOGLXo_w7dRbb6Q6lHF-39" value="conf_type" style="ellipse;whiteSpace=wrap;html=1;" vertex="1" parent="1">
          <mxGeometry x="910" y="-250" width="120" height="80" as="geometry" />
        </mxCell>
        <mxCell id="2bOGLXo_w7dRbb6Q6lHF-40" value="" style="endArrow=none;html=1;rounded=0;" edge="1" parent="1" source="2bOGLXo_w7dRbb6Q6lHF-39" target="fSRjRrEwKEqSPYzv1rZL-3">
          <mxGeometry width="50" height="50" relative="1" as="geometry">
            <mxPoint x="1005" y="-100" as="sourcePoint" />
            <mxPoint x="1055" y="-150" as="targetPoint" />
          </mxGeometry>
        </mxCell>
        <mxCell id="X6PnvQEDPY1x2IoHHNuD-1" value="project_description" style="ellipse;whiteSpace=wrap;html=1;" vertex="1" parent="1">
          <mxGeometry x="-220" y="-50" width="110" height="30" as="geometry" />
        </mxCell>
        <mxCell id="X6PnvQEDPY1x2IoHHNuD-4" value="" style="endArrow=none;html=1;rounded=0;" edge="1" parent="1" source="X6PnvQEDPY1x2IoHHNuD-1" target="fSRjRrEwKEqSPYzv1rZL-2">
          <mxGeometry width="50" height="50" relative="1" as="geometry">
            <mxPoint x="-120" y="160" as="sourcePoint" />
            <mxPoint x="-70" y="110" as="targetPoint" />
          </mxGeometry>
        </mxCell>
        <mxCell id="X6PnvQEDPY1x2IoHHNuD-6" value="" style="endArrow=none;html=1;rounded=0;" edge="1" parent="1" source="X6PnvQEDPY1x2IoHHNuD-9" target="fSRjRrEwKEqSPYzv1rZL-2">
          <mxGeometry width="50" height="50" relative="1" as="geometry">
            <mxPoint x="-101.76326266293745" y="101.03332799063992" as="sourcePoint" />
            <mxPoint x="-70" y="170" as="targetPoint" />
          </mxGeometry>
        </mxCell>
        <mxCell id="X6PnvQEDPY1x2IoHHNuD-8" value="" style="ellipse;whiteSpace=wrap;html=1;" vertex="1" parent="1">
          <mxGeometry x="-210" y="110" width="120" height="80" as="geometry" />
        </mxCell>
        <mxCell id="X6PnvQEDPY1x2IoHHNuD-9" value="project_tags" style="ellipse;whiteSpace=wrap;html=1;" vertex="1" parent="1">
          <mxGeometry x="-200" y="117.5" width="100" height="65" as="geometry" />
        </mxCell>
        <mxCell id="X6PnvQEDPY1x2IoHHNuD-10" value="" style="ellipse;whiteSpace=wrap;html=1;" vertex="1" parent="1">
          <mxGeometry x="150" y="370.43" width="120" height="80" as="geometry" />
        </mxCell>
        <mxCell id="X6PnvQEDPY1x2IoHHNuD-13" value="expertise" style="ellipse;whiteSpace=wrap;html=1;" vertex="1" parent="1">
          <mxGeometry x="170" y="380.43" width="80" height="60" as="geometry" />
        </mxCell>
        <mxCell id="X6PnvQEDPY1x2IoHHNuD-15" value="" style="endArrow=none;html=1;rounded=0;entryX=0.357;entryY=0.879;entryDx=0;entryDy=0;entryPerimeter=0;" edge="1" parent="1" source="fSRjRrEwKEqSPYzv1rZL-1" target="2bOGLXo_w7dRbb6Q6lHF-34">
          <mxGeometry width="50" height="50" relative="1" as="geometry">
            <mxPoint x="450" y="250" as="sourcePoint" />
            <mxPoint x="500" y="200" as="targetPoint" />
          </mxGeometry>
        </mxCell>
        <mxCell id="X6PnvQEDPY1x2IoHHNuD-16" value="department_phone" style="ellipse;whiteSpace=wrap;html=1;" vertex="1" parent="1">
          <mxGeometry x="315" y="605" width="110" height="39.14" as="geometry" />
        </mxCell>
        <mxCell id="X6PnvQEDPY1x2IoHHNuD-17" value="" style="endArrow=none;html=1;rounded=0;" edge="1" parent="1" source="X6PnvQEDPY1x2IoHHNuD-16" target="fSRjRrEwKEqSPYzv1rZL-5">
          <mxGeometry width="50" height="50" relative="1" as="geometry">
            <mxPoint x="460" y="518" as="sourcePoint" />
            <mxPoint x="480" y="448" as="targetPoint" />
          </mxGeometry>
        </mxCell>
        <mxCell id="X6PnvQEDPY1x2IoHHNuD-21" value="" style="ellipse;whiteSpace=wrap;html=1;" vertex="1" parent="1">
          <mxGeometry x="430" y="70" width="120" height="80" as="geometry" />
        </mxCell>
        <mxCell id="X6PnvQEDPY1x2IoHHNuD-22" value="education" style="ellipse;whiteSpace=wrap;html=1;" vertex="1" parent="1">
          <mxGeometry x="440" y="85" width="100" height="55" as="geometry" />
        </mxCell>
        <mxCell id="X6PnvQEDPY1x2IoHHNuD-24" value="" style="endArrow=none;html=1;rounded=0;" edge="1" parent="1" source="fSRjRrEwKEqSPYzv1rZL-1" target="X6PnvQEDPY1x2IoHHNuD-22">
          <mxGeometry width="50" height="50" relative="1" as="geometry">
            <mxPoint x="480" y="230" as="sourcePoint" />
            <mxPoint x="530" y="180" as="targetPoint" />
          </mxGeometry>
        </mxCell>
        <mxCell id="X6PnvQEDPY1x2IoHHNuD-25" value="institution_type" style="ellipse;whiteSpace=wrap;html=1;" vertex="1" parent="1">
          <mxGeometry x="975.12" y="700" width="115" height="30" as="geometry" />
        </mxCell>
        <mxCell id="X6PnvQEDPY1x2IoHHNuD-26" value="" style="endArrow=none;html=1;rounded=0;" edge="1" parent="1" source="X6PnvQEDPY1x2IoHHNuD-25" target="fSRjRrEwKEqSPYzv1rZL-6">
          <mxGeometry width="50" height="50" relative="1" as="geometry">
            <mxPoint x="1016" y="682" as="sourcePoint" />
            <mxPoint x="924" y="610" as="targetPoint" />
            <Array as="points" />
          </mxGeometry>
        </mxCell>
        <mxCell id="X6PnvQEDPY1x2IoHHNuD-27" value="" style="ellipse;whiteSpace=wrap;html=1;" vertex="1" parent="1">
          <mxGeometry x="650" y="-15" width="120" height="80" as="geometry" />
        </mxCell>
        <mxCell id="X6PnvQEDPY1x2IoHHNuD-28" value="papers" style="ellipse;whiteSpace=wrap;html=1;" vertex="1" parent="1">
          <mxGeometry x="660" width="100" height="55" as="geometry" />
        </mxCell>
        <mxCell id="X6PnvQEDPY1x2IoHHNuD-29" value="" style="endArrow=none;html=1;rounded=0;" edge="1" parent="1" source="fSRjRrEwKEqSPYzv1rZL-1" target="X6PnvQEDPY1x2IoHHNuD-28">
          <mxGeometry width="50" height="50" relative="1" as="geometry">
            <mxPoint x="720" y="290" as="sourcePoint" />
            <mxPoint x="770" y="240" as="targetPoint" />
          </mxGeometry>
        </mxCell>
      </root>
    </mxGraphModel>
  </diagram>
</mxfile>
